<?xml version="1.0" encoding="UTF-8" standalone="no"?>
<!-- Created with Inkscape (http://www.inkscape.org/) -->

<svg
   xmlns:dc="http://purl.org/dc/elements/1.1/"
   xmlns:cc="http://creativecommons.org/ns#"
   xmlns:rdf="http://www.w3.org/1999/02/22-rdf-syntax-ns#"
   xmlns:svg="http://www.w3.org/2000/svg"
   xmlns="http://www.w3.org/2000/svg"
   xmlns:sodipodi="http://sodipodi.sourceforge.net/DTD/sodipodi-0.dtd"
   xmlns:inkscape="http://www.inkscape.org/namespaces/inkscape"
   width="210mm"
   height="297mm"
   viewBox="0 0 744.09448819 1052.3622047"
   id="svg5623"
   version="1.1"
   inkscape:version="0.91 r13725"
   sodipodi:docname="sigma.svg">
  <defs
     id="defs5625" />
  <sodipodi:namedview
     id="base"
     pagecolor="#ffffff"
     bordercolor="#666666"
     borderopacity="1.0"
     inkscape:pageopacity="0.0"
     inkscape:pageshadow="2"
     inkscape:zoom="0.98994949"
     inkscape:cx="481.45756"
     inkscape:cy="586.12399"
     inkscape:document-units="px"
     inkscape:current-layer="layer1"
     showgrid="false"
     inkscape:window-width="1920"
     inkscape:window-height="1056"
     inkscape:window-x="0"
     inkscape:window-y="24"
     inkscape:window-maximized="1" />
  <metadata
     id="metadata5628">
    <rdf:RDF>
      <cc:Work
         rdf:about="">
        <dc:format>image/svg+xml</dc:format>
        <dc:type
           rdf:resource="http://purl.org/dc/dcmitype/StillImage" />
      </cc:Work>
    </rdf:RDF>
  </metadata>
  <g
     inkscape:label="Layer 1"
     inkscape:groupmode="layer"
     id="layer1">
    <path
       style="fill:#348aad;fill-opacity:1;fill-rule:evenodd"
       d="m 159.85714,910.7691 c 0,-9.25044 0.59863,-10.10633 122.22958,-174.7581 C 349.313,645.00681 404.07073,569.71834 403.77056,568.70329 403.47041,567.68826 348.88036,489.748 282.45936,395.50272 162.6145,225.45392 161.69387,224.0755 161.69387,214.68349 l 0,-9.46414 228.26316,0 243.72672,0 11.91748,84.13024 c 6.39174,45.12168 13.41568,78.59843 12.85968,80.47239 -3.01185,10.15131 -14.79855,11.75734 -14.79855,11.75734 l -6.8194,-2.61275 -9.31213,-18.27293 c -9.16728,-17.98869 -25.43992,-48.64755 -32.96347,-62.01824 -13.85535,-24.62339 -35.81929,-41.11776 -66.6559,-50.05681 -16.10352,-4.6682 -17.85187,-4.73069 -132.34039,-4.73069 -63.81171,0 -116.57433,0.62972 -117.25027,1.39938 -0.67596,0.76966 43.12897,64.61706 97.34426,141.8831 54.21531,77.26604 98.90345,141.53679 99.30696,142.82388 0.40352,1.28707 -48.8424,70.4402 -109.43542,153.67359 -60.59302,83.23338 -110.1691,152.13133 -110.1691,153.10656 0,2.60004 252.93911,2.21867 275.49475,-0.4154 43.75632,-5.10985 67.99623,-27.07941 87.62825,-63.942 3.27924,-6.15739 8.61785,-31.29802 13.96117,-45.22987 5.34329,-13.93183 15.40188,-9.90212 16.05959,-9.97654 4.31022,-0.48785 8.55942,10.65806 8.55942,12.96959 0,1.5282 -1.27244,14.70147 -5.73533,41.72795 -4.46288,27.02651 -10.31824,67.89091 -13.01187,90.80978 -2.69361,22.91889 -5.25317,44.57321 -5.68783,48.1207 l -0.79034,6.44997 -128.08578,1.3866 c -70.44716,0.76262 -176.64449,1.38731 -235.99408,1.38823 l -107.90831,0.001 0,-9.29597 z"
       id="path6224"
       inkscape:connector-curvature="0"
       sodipodi:nodetypes="csssscccssccsssscscssssscsssscssccc" />
    <path
       style="opacity:1;fill:#00222b;fill-opacity:1;fill-rule:nonzero"
       d="m 160.77991,912.33436 c 0.33872,-7.20719 0.76944,-8.63849 4.38119,-14.55898 6.29365,-10.31674 32.1239,-46.04369 90.92616,-125.76399 90.67718,-122.93423 144.20405,-196.33391 147.03658,-201.62654 0.8308,-1.55237 0.3856,-2.89788 -2.22615,-6.72804 C 394.37416,554.08997 346.7504,486.16166 283.8741,396.73972 195.67274,271.30083 192.68939,267.03552 180.5433,249.00726 164.81145,225.65671 162.66415,221.4931 161.94802,212.9512 l -0.59778,-7.13031 235.90471,0 235.90471,0 0.57944,3.28299 c 0.31868,1.80565 3.56763,24.42044 7.21989,50.25509 3.65225,25.83465 8.89692,60.31371 11.65482,76.62011 2.7579,16.30641 5.01435,30.78247 5.01435,32.16903 0,5.64805 -7.35144,12.42917 -13.47452,12.42917 -5.04179,0 -7.28037,-1.98797 -11.17952,-9.92802 -12.62847,-25.71599 -37.01625,-70.97895 -43.19285,-80.1646 -13.68605,-20.35343 -35.1995,-34.76911 -63.8754,-42.80143 -8.07769,-2.26261 -12.38287,-2.70399 -35.45795,-3.63522 -29.9381,-1.20819 -208.75562,-0.41798 -211.17001,0.93318 -2.21409,1.23907 13.19255,23.92606 120.8943,178.0225 71.12859,101.76865 73.90153,105.84617 73.36722,107.88412 -0.89787,3.42457 -38.2235,55.84509 -120.98161,169.90783 -87.64702,120.80097 -97.69945,134.96716 -96.57427,136.09532 2.03097,2.03636 130.61448,2.80052 218.807,1.30035 57.96065,-0.98592 64.3636,-1.52141 80.30713,-6.71618 21.79654,-7.1018 39.34276,-20.93223 53.7586,-42.37401 8.9864,-13.36614 10.90926,-17.77537 17.00609,-38.99599 3.05711,-10.64056 6.39305,-21.20154 7.4132,-23.46885 2.83066,-6.29121 6.50676,-9.17313 11.70102,-9.17313 5.29277,0 7.88817,2.08045 10.22332,8.19497 1.97669,5.17587 1.71102,7.93469 -4.65829,48.37358 -5.93559,37.68523 -10.66588,71.9005 -15.05824,108.91984 -2.16385,18.23712 -4.09011,33.31423 -4.28057,33.5047 -0.64196,0.64195 -195.27218,2.50314 -333.55591,3.1897 l -137.24263,0.68139 0.37564,-7.99297 z"
       id="path4144"
       inkscape:connector-curvature="0" />
  </g>
</svg>
